# xmcd
# 
# Track frame offsets:
#     150
#     21317
#     39512
#     63055
#     81698
#     115263
#     134315
#     151013
#     171032
#     187868
# 
# Disc length: 2667
# 
# Revision: 2
# Processed by: cddbd v1.5.2PL0 Copyright (c) Steve Scherf et al.
# Submitted via: fre:ac v1.0.27
# 
DISCID=780a690a
DTITLE=Joe Pitts - Ten Shades Of Blue
DYEAR=2010
DGENRE=Blues Rock
TTITLE0=Breaking Up Somebody's Home
TTITLE1=Crosseyed Cat
TTITLE2=Clouds On The Horizon
TTITLE3=Pain In The Streets
TTITLE4=Freedom From My Demons
TTITLE5=Put The Show On The Other Foot
TTITLE6=I'm Worried
TTITLE7=No Stranger To The Blues
TTITLE8=Walkin' On Sunset
TTITLE9=The World Keeps On Turning
EXTD=
EXTT0=
EXTT1=
EXTT2=
EXTT3=
EXTT4=
EXTT5=
EXTT6=
EXTT7=
EXTT8=
EXTT9=
PLAYORDER=
